<?xml version="1.0" encoding="UTF-8"?>
<!DOCTYPE svg PUBLIC "-//W3C//DTD SVG 1.1//EN" "http://www.w3.org/Graphics/SVG/1.1/DTD/svg11.dtd">
<svg xmlns="http://www.w3.org/2000/svg" version="1.1" width="2160px" height="2160px" style="shape-rendering:geometricPrecision; text-rendering:geometricPrecision; image-rendering:optimizeQuality; fill-rule:evenodd; clip-rule:evenodd" xmlns:xlink="http://www.w3.org/1999/xlink">
<g><path style="opacity:0.978" fill="#8dcd8f" d="M 1082.5,70.5 C 1116.34,132.174 1149.67,194.174 1182.5,256.5C 1160.5,256.5 1138.5,256.5 1116.5,256.5C 1104.81,194.691 1093.47,132.691 1082.5,70.5 Z"/></g>
<g><path style="opacity:0.974" fill="#8dcd8f" d="M 1080.5,71.5 C 1066.28,133.388 1051.61,195.054 1036.5,256.5C 1018.17,256.5 999.833,256.5 981.5,256.5C 1013.74,194.349 1046.74,132.682 1080.5,71.5 Z"/></g>
<g><path style="opacity:1" fill="#a1e0ad" d="M 1082.5,70.5 C 1093.47,132.691 1104.81,194.691 1116.5,256.5C 1117.51,264.886 1118.84,273.219 1120.5,281.5C 1121.17,285.5 1121.83,289.5 1122.5,293.5C 1124.22,301.439 1125.55,309.439 1126.5,317.5C 1127.68,325.724 1129.34,333.724 1131.5,341.5C 1133.83,356.167 1136.17,370.833 1138.5,385.5C 1095.18,387.495 1051.51,388.161 1007.5,387.5C 1007.5,386.167 1007.5,384.833 1007.5,383.5C 1010.71,369.473 1014.04,355.473 1017.5,341.5C 1019.48,333.573 1021.15,325.573 1022.5,317.5C 1025.13,309.647 1027.13,301.647 1028.5,293.5C 1030,289.67 1030.67,285.67 1030.5,281.5C 1033.26,273.46 1035.26,265.127 1036.5,256.5C 1051.61,195.054 1066.28,133.388 1080.5,71.5C 1081.03,68.5404 1081.7,68.2071 1082.5,70.5 Z"/></g>
<g><path style="opacity:0.987" fill="#8ecd91" d="M 981.5,256.5 C 999.833,256.5 1018.17,256.5 1036.5,256.5C 1035.26,265.127 1033.26,273.46 1030.5,281.5C 1009.5,281.5 988.5,281.5 967.5,281.5C 971.929,272.97 976.595,264.637 981.5,256.5 Z"/></g>
<g><path style="opacity:0.99" fill="#8ecd91" d="M 1116.5,256.5 C 1138.5,256.5 1160.5,256.5 1182.5,256.5C 1187.4,264.637 1192.07,272.97 1196.5,281.5C 1171.17,281.5 1145.83,281.5 1120.5,281.5C 1118.84,273.219 1117.51,264.886 1116.5,256.5 Z"/></g>
<g><path style="opacity:0.988" fill="#90ce94" d="M 967.5,281.5 C 988.5,281.5 1009.5,281.5 1030.5,281.5C 1030.67,285.67 1030,289.67 1028.5,293.5C 1006.17,293.5 983.833,293.5 961.5,293.5C 962.975,289.217 964.975,285.217 967.5,281.5 Z"/></g>
<g><path style="opacity:0.99" fill="#90ce94" d="M 1120.5,281.5 C 1145.83,281.5 1171.17,281.5 1196.5,281.5C 1199.02,285.217 1201.02,289.217 1202.5,293.5C 1175.83,293.5 1149.17,293.5 1122.5,293.5C 1121.83,289.5 1121.17,285.5 1120.5,281.5 Z"/></g>
<g><path style="opacity:0.99" fill="#94cf97" d="M 961.5,293.5 C 983.833,293.5 1006.17,293.5 1028.5,293.5C 1027.13,301.647 1025.13,309.647 1022.5,317.5C 997.833,317.5 973.167,317.5 948.5,317.5C 952.328,309.173 956.662,301.173 961.5,293.5 Z"/></g>
<g><path style="opacity:0.991" fill="#94cf97" d="M 1122.5,293.5 C 1149.17,293.5 1175.83,293.5 1202.5,293.5C 1207.34,301.173 1211.67,309.173 1215.5,317.5C 1185.83,317.5 1156.17,317.5 1126.5,317.5C 1125.55,309.439 1124.22,301.439 1122.5,293.5 Z"/></g>
<g><path style="opacity:0.991" fill="#96cf9b" d="M 948.5,317.5 C 973.167,317.5 997.833,317.5 1022.5,317.5C 1021.15,325.573 1019.48,333.573 1017.5,341.5C 990.167,341.5 962.833,341.5 935.5,341.5C 939.341,333.146 943.674,325.146 948.5,317.5 Z"/></g>
<g><path style="opacity:0.993" fill="#96cf9b" d="M 1126.5,317.5 C 1156.17,317.5 1185.83,317.5 1215.5,317.5C 1220.34,325.173 1224.67,333.173 1228.5,341.5C 1196.17,341.5 1163.83,341.5 1131.5,341.5C 1129.34,333.724 1127.68,325.724 1126.5,317.5 Z"/></g>
<g><path style="opacity:0.994" fill="#98d09d" d="M 935.5,341.5 C 962.833,341.5 990.167,341.5 1017.5,341.5C 1014.04,355.473 1010.71,369.473 1007.5,383.5C 993.052,443.056 978.719,502.723 964.5,562.5C 915.5,562.5 866.5,562.5 817.5,562.5C 856.582,488.667 895.916,415 935.5,341.5 Z"/></g>
<g><path style="opacity:0.995" fill="#98d09d" d="M 1131.5,341.5 C 1163.83,341.5 1196.17,341.5 1228.5,341.5C 1268.4,414.973 1308.07,488.639 1347.5,562.5C 1288.49,561.837 1229.82,562.504 1171.5,564.5C 1160.22,504.894 1149.22,445.228 1138.5,385.5C 1136.17,370.833 1133.83,356.167 1131.5,341.5 Z"/></g>
<g><path style="opacity:1" fill="#a0ddaa" d="M 1007.5,383.5 C 1007.5,384.833 1007.5,386.167 1007.5,387.5C 1051.51,388.161 1095.18,387.495 1138.5,385.5C 1149.22,445.228 1160.22,504.894 1171.5,564.5C 1175.53,590.749 1180.2,616.749 1185.5,642.5C 1186.56,653.473 1188.56,664.14 1191.5,674.5C 1195.66,700.942 1200.32,727.276 1205.5,753.5C 1206.51,761.232 1207.84,768.899 1209.5,776.5C 1212.85,796.921 1216.51,817.255 1220.5,837.5C 1221.77,848.098 1223.77,858.431 1226.5,868.5C 1228.99,885.953 1231.99,903.286 1235.5,920.5C 1236.34,927.718 1237.68,934.718 1239.5,941.5C 1241.06,952.518 1242.73,963.518 1244.5,974.5C 1244.5,975.833 1244.5,977.167 1244.5,978.5C 1118.83,978.5 993.167,978.5 867.5,978.5C 867.5,977.167 867.5,975.833 867.5,974.5C 869.833,963.167 872.167,951.833 874.5,940.5C 876.768,934.095 878.435,927.428 879.5,920.5C 883.947,902.952 888.28,885.285 892.5,867.5C 894.579,857.437 896.912,847.437 899.5,837.5C 904.639,817.277 909.306,796.944 913.5,776.5C 915.631,768.98 917.631,761.313 919.5,753.5C 926.238,728.001 932.238,702.335 937.5,676.5C 940.658,665.732 943.325,654.732 945.5,643.5C 952.198,616.696 958.531,589.696 964.5,562.5C 978.719,502.723 993.052,443.056 1007.5,383.5 Z"/></g>
<g><path style="opacity:0.995" fill="#96cf9a" d="M 817.5,562.5 C 866.5,562.5 915.5,562.5 964.5,562.5C 958.531,589.696 952.198,616.696 945.5,643.5C 888.843,641.504 831.843,640.837 774.5,641.5C 788.595,614.972 802.928,588.639 817.5,562.5 Z"/></g>
<g><path style="opacity:0.996" fill="#96cf9a" d="M 1347.5,562.5 C 1361.77,588.702 1375.77,615.035 1389.5,641.5C 1321.33,641.167 1253.33,641.501 1185.5,642.5C 1180.2,616.749 1175.53,590.749 1171.5,564.5C 1229.82,562.504 1288.49,561.837 1347.5,562.5 Z"/></g>
<g><path style="opacity:0.996" fill="#94cf98" d="M 774.5,641.5 C 831.843,640.837 888.843,641.504 945.5,643.5C 943.325,654.732 940.658,665.732 937.5,676.5C 877.843,674.504 817.843,673.837 757.5,674.5C 762.898,663.37 768.565,652.37 774.5,641.5 Z"/></g>
<g><path style="opacity:0.997" fill="#94cf98" d="M 1389.5,641.5 C 1395.74,652.305 1401.74,663.305 1407.5,674.5C 1335.5,674.5 1263.5,674.5 1191.5,674.5C 1188.56,664.14 1186.56,653.473 1185.5,642.5C 1253.33,641.501 1321.33,641.167 1389.5,641.5 Z"/></g>
<g><path style="opacity:0.996" fill="#92cd96" d="M 757.5,674.5 C 817.843,673.837 877.843,674.504 937.5,676.5C 932.238,702.335 926.238,728.001 919.5,753.5C 851.167,753.5 782.833,753.5 714.5,753.5C 728.595,726.972 742.928,700.639 757.5,674.5 Z"/></g>
<g><path style="opacity:0.997" fill="#92cd96" d="M 1191.5,674.5 C 1263.5,674.5 1335.5,674.5 1407.5,674.5C 1421.77,700.702 1435.77,727.035 1449.5,753.5C 1368.17,753.5 1286.83,753.5 1205.5,753.5C 1200.32,727.276 1195.66,700.942 1191.5,674.5 Z"/></g>
<g><path style="opacity:0.997" fill="#90cc94" d="M 714.5,753.5 C 782.833,753.5 851.167,753.5 919.5,753.5C 917.631,761.313 915.631,768.98 913.5,776.5C 843.167,776.5 772.833,776.5 702.5,776.5C 706.232,768.703 710.232,761.036 714.5,753.5 Z"/></g>
<g><path style="opacity:0.997" fill="#90cc94" d="M 1205.5,753.5 C 1286.83,753.5 1368.17,753.5 1449.5,753.5C 1454.07,760.969 1458.4,768.636 1462.5,776.5C 1378.17,776.5 1293.83,776.5 1209.5,776.5C 1207.84,768.899 1206.51,761.232 1205.5,753.5 Z"/></g>
<g><path style="opacity:0.997" fill="#8dcc91" d="M 702.5,776.5 C 772.833,776.5 843.167,776.5 913.5,776.5C 909.306,796.944 904.639,817.277 899.5,837.5C 822.833,837.5 746.167,837.5 669.5,837.5C 680.262,816.972 691.262,796.639 702.5,776.5 Z"/></g>
<g><path style="opacity:0.997" fill="#8dcc91" d="M 1209.5,776.5 C 1293.83,776.5 1378.17,776.5 1462.5,776.5C 1473.43,796.702 1484.1,817.036 1494.5,837.5C 1403.17,837.5 1311.83,837.5 1220.5,837.5C 1216.51,817.255 1212.85,796.921 1209.5,776.5 Z"/></g>
<g><path style="opacity:0.997" fill="#8acb8d" d="M 669.5,837.5 C 746.167,837.5 822.833,837.5 899.5,837.5C 896.912,847.437 894.579,857.437 892.5,867.5C 812.833,867.5 733.167,867.5 653.5,867.5C 658.833,857.5 664.167,847.5 669.5,837.5 Z"/></g>
<g><path style="opacity:0.997" fill="#8acb8d" d="M 1220.5,837.5 C 1311.83,837.5 1403.17,837.5 1494.5,837.5C 1500.34,847.175 1505.67,857.175 1510.5,867.5C 1415.67,867.167 1321,867.501 1226.5,868.5C 1223.77,858.431 1221.77,848.098 1220.5,837.5 Z"/></g>
<g><path style="opacity:0.997" fill="#87ca8b" d="M 653.5,867.5 C 733.167,867.5 812.833,867.5 892.5,867.5C 888.28,885.285 883.947,902.952 879.5,920.5C 794.833,920.5 710.167,920.5 625.5,920.5C 634.566,902.702 643.899,885.035 653.5,867.5 Z"/></g>
<g><path style="opacity:0.998" fill="#87ca8b" d="M 1510.5,867.5 C 1520.4,884.972 1530.07,902.638 1539.5,920.5C 1438.17,920.5 1336.83,920.5 1235.5,920.5C 1231.99,903.286 1228.99,885.953 1226.5,868.5C 1321,867.501 1415.67,867.167 1510.5,867.5 Z"/></g>
<g><path style="opacity:0.997" fill="#84ca88" d="M 625.5,920.5 C 710.167,920.5 794.833,920.5 879.5,920.5C 878.435,927.428 876.768,934.095 874.5,940.5C 787.833,940.5 701.167,940.5 614.5,940.5C 617.675,933.477 621.341,926.811 625.5,920.5 Z"/></g>
<g><path style="opacity:0.998" fill="#84ca88" d="M 1235.5,920.5 C 1336.83,920.5 1438.17,920.5 1539.5,920.5C 1543.17,927.167 1546.83,933.833 1550.5,940.5C 1446.67,940.167 1343,940.501 1239.5,941.5C 1237.68,934.718 1236.34,927.718 1235.5,920.5 Z"/></g>
<g><path style="opacity:0.997" fill="#82c886" d="M 614.5,940.5 C 701.167,940.5 787.833,940.5 874.5,940.5C 872.167,951.833 869.833,963.167 867.5,974.5C 866.167,978.833 864.833,983.167 863.5,987.5C 772.335,986.501 681.002,986.167 589.5,986.5C 597.833,971.167 606.167,955.833 614.5,940.5 Z"/></g>
<g><path style="opacity:0.998" fill="#82c886" d="M 1550.5,940.5 C 1558.51,955.86 1566.51,971.193 1574.5,986.5C 1465.5,986.5 1356.5,986.5 1247.5,986.5C 1246.5,982.5 1245.5,978.5 1244.5,974.5C 1242.73,963.518 1241.06,952.518 1239.5,941.5C 1343,940.501 1446.67,940.167 1550.5,940.5 Z"/></g>
<g><path style="opacity:1" fill="#9dd9a6" d="M 867.5,974.5 C 867.5,975.833 867.5,977.167 867.5,978.5C 993.167,978.5 1118.83,978.5 1244.5,978.5C 1244.5,977.167 1244.5,975.833 1244.5,974.5C 1245.5,978.5 1246.5,982.5 1247.5,986.5C 1249.18,998.558 1251.18,1010.56 1253.5,1022.5C 1254.31,1027.86 1255.31,1033.2 1256.5,1038.5C 1257.72,1044.46 1258.72,1050.46 1259.5,1056.5C 1263.21,1075.07 1266.55,1093.73 1269.5,1112.5C 1212.19,1134.27 1155.19,1156.6 1098.5,1179.5C 1031.1,1205.3 963.767,1231.3 896.5,1257.5C 864.5,1257.5 832.5,1257.5 800.5,1257.5C 809.167,1219.5 817.833,1181.5 826.5,1143.5C 830.121,1130.35 833.454,1117.02 836.5,1103.5C 837.038,1101.88 837.371,1100.22 837.5,1098.5C 840.957,1084.55 844.291,1070.55 847.5,1056.5C 849.148,1050.57 850.481,1044.57 851.5,1038.5C 853.143,1033.26 854.476,1027.93 855.5,1022.5C 858.633,1010.96 861.3,999.298 863.5,987.5C 864.833,983.167 866.167,978.833 867.5,974.5 Z"/></g>
<g><path style="opacity:0.997" fill="#7ec881" d="M 589.5,986.5 C 681.002,986.167 772.335,986.501 863.5,987.5C 861.3,999.298 858.633,1010.96 855.5,1022.5C 760.5,1022.5 665.5,1022.5 570.5,1022.5C 576.833,1010.5 583.167,998.5 589.5,986.5 Z"/></g>
<g><path style="opacity:1" fill="#7ec881" d="M 1247.5,986.5 C 1356.5,986.5 1465.5,986.5 1574.5,986.5C 1575.34,986.842 1575.67,987.508 1575.5,988.5C 1575.5,989.833 1575.5,991.167 1575.5,992.5C 1550.01,1002.74 1524.35,1012.74 1498.5,1022.5C 1416.83,1022.5 1335.17,1022.5 1253.5,1022.5C 1251.18,1010.56 1249.18,998.558 1247.5,986.5 Z"/></g>
<g><path style="opacity:1" fill="#56b45e" d="M 1575.5,992.5 C 1584.71,1049.55 1593.04,1106.05 1600.5,1162C 1603.16,1176.46 1605.49,1190.96 1607.5,1205.5C 1606.5,1389.67 1606.17,1574 1606.5,1758.5C 1529.5,1758.5 1452.5,1758.5 1375.5,1758.5C 1374.99,1755.02 1374.32,1751.68 1373.5,1748.5C 1373.04,1742.07 1372.04,1735.74 1370.5,1729.5C 1370.15,1725.74 1369.49,1722.08 1368.5,1718.5C 1359.47,1661.33 1350.14,1604.33 1340.5,1547.5C 1336.12,1518.68 1331.45,1490.01 1326.5,1461.5C 1320.82,1425.99 1314.82,1390.66 1308.5,1355.5C 1299.75,1295.89 1290.09,1236.56 1279.5,1177.5C 1276.49,1155.79 1273.16,1134.12 1269.5,1112.5C 1316.68,1094.07 1363.68,1075.41 1410.5,1056.5C 1426.54,1051.27 1442.21,1045.27 1457.5,1038.5C 1471.4,1033.54 1485.07,1028.2 1498.5,1022.5C 1524.35,1012.74 1550.01,1002.74 1575.5,992.5 Z"/></g>
<g><path style="opacity:0.996" fill="#54ae5d" d="M 1575.5,988.5 C 1713.87,1244.89 1851.87,1501.56 1989.5,1758.5C 1889.5,1758.5 1789.5,1758.5 1689.5,1758.5C 1661.91,1573.37 1634.58,1389.04 1607.5,1205.5C 1605.49,1190.96 1603.16,1176.46 1600.5,1162C 1593.04,1106.05 1584.71,1049.55 1575.5,992.5C 1575.5,991.167 1575.5,989.833 1575.5,988.5 Z"/></g>
<g><path style="opacity:0.998" fill="#7bc87f" d="M 570.5,1022.5 C 665.5,1022.5 760.5,1022.5 855.5,1022.5C 854.476,1027.93 853.143,1033.26 851.5,1038.5C 755.167,1038.5 658.833,1038.5 562.5,1038.5C 564.642,1032.88 567.308,1027.55 570.5,1022.5 Z"/></g>
<g><path style="opacity:1" fill="#7bc77f" d="M 1253.5,1022.5 C 1335.17,1022.5 1416.83,1022.5 1498.5,1022.5C 1485.07,1028.2 1471.4,1033.54 1457.5,1038.5C 1390.5,1038.5 1323.5,1038.5 1256.5,1038.5C 1255.31,1033.2 1254.31,1027.86 1253.5,1022.5 Z"/></g>
<g><path style="opacity:0.998" fill="#7ac77d" d="M 562.5,1038.5 C 658.833,1038.5 755.167,1038.5 851.5,1038.5C 850.481,1044.57 849.148,1050.57 847.5,1056.5C 749.167,1056.5 650.833,1056.5 552.5,1056.5C 555.342,1050.14 558.675,1044.14 562.5,1038.5 Z"/></g>
<g><path style="opacity:1" fill="#7ac67d" d="M 1256.5,1038.5 C 1323.5,1038.5 1390.5,1038.5 1457.5,1038.5C 1442.21,1045.27 1426.54,1051.27 1410.5,1056.5C 1360.17,1056.5 1309.83,1056.5 1259.5,1056.5C 1258.72,1050.46 1257.72,1044.46 1256.5,1038.5 Z"/></g>
<g><path style="opacity:0.998" fill="#78c67a" d="M 552.5,1056.5 C 650.833,1056.5 749.167,1056.5 847.5,1056.5C 844.291,1070.55 840.957,1084.55 837.5,1098.5C 734.833,1098.5 632.167,1098.5 529.5,1098.5C 537.183,1084.47 544.849,1070.47 552.5,1056.5 Z"/></g>
<g><path style="opacity:1" fill="#78c67a" d="M 1259.5,1056.5 C 1309.83,1056.5 1360.17,1056.5 1410.5,1056.5C 1363.68,1075.41 1316.68,1094.07 1269.5,1112.5C 1266.55,1093.73 1263.21,1075.07 1259.5,1056.5 Z"/></g>
<g><path style="opacity:0.997" fill="#75c679" d="M 529.5,1098.5 C 632.167,1098.5 734.833,1098.5 837.5,1098.5C 837.371,1100.22 837.038,1101.88 836.5,1103.5C 733.5,1103.5 630.5,1103.5 527.5,1103.5C 527.893,1101.72 528.559,1100.05 529.5,1098.5 Z"/></g>
<g><path style="opacity:0.998" fill="#72c574" d="M 527.5,1103.5 C 630.5,1103.5 733.5,1103.5 836.5,1103.5C 833.454,1117.02 830.121,1130.35 826.5,1143.5C 719.5,1143.5 612.5,1143.5 505.5,1143.5C 512.849,1130.13 520.182,1116.8 527.5,1103.5 Z"/></g>
<g><path style="opacity:1" fill="#7ac67d" d="M 1269.5,1112.5 C 1273.16,1134.12 1276.49,1155.79 1279.5,1177.5C 1219.51,1179.5 1159.18,1180.16 1098.5,1179.5C 1155.19,1156.6 1212.19,1134.27 1269.5,1112.5 Z"/></g>
<g><path style="opacity:0.997" fill="#6fc571" d="M 505.5,1143.5 C 612.5,1143.5 719.5,1143.5 826.5,1143.5C 817.833,1181.5 809.167,1219.5 800.5,1257.5C 796.565,1271.24 793.232,1285.24 790.5,1299.5C 790.737,1300.79 790.404,1301.79 789.5,1302.5C 789.631,1301.76 789.464,1301.09 789,1300.5C 667.61,1347.9 546.443,1395.57 425.5,1443.5C 408.684,1449.44 392.018,1455.77 375.5,1462.5C 358.384,1468.89 341.384,1475.56 324.5,1482.5C 384.566,1369.37 444.9,1256.37 505.5,1143.5 Z"/></g>
<g><path style="opacity:1" fill="#78c67b" d="M 1279.5,1177.5 C 1290.09,1236.56 1299.75,1295.89 1308.5,1355.5C 1132.17,1356.83 955.833,1356.83 779.5,1355.5C 782.576,1337.79 785.909,1320.12 789.5,1302.5C 790.404,1301.79 790.737,1300.79 790.5,1299.5C 825.983,1285.68 861.317,1271.68 896.5,1257.5C 963.767,1231.3 1031.1,1205.3 1098.5,1179.5C 1159.18,1180.16 1219.51,1179.5 1279.5,1177.5 Z"/></g>
<g><path style="opacity:1" fill="#55b35c" d="M 1607.5,1205.5 C 1634.58,1389.04 1661.91,1573.37 1689.5,1758.5C 1661.83,1758.5 1634.17,1758.5 1606.5,1758.5C 1606.17,1574 1606.5,1389.67 1607.5,1205.5 Z"/></g>
<g><path style="opacity:1" fill="#9bd5a2" d="M 800.5,1257.5 C 832.5,1257.5 864.5,1257.5 896.5,1257.5C 861.317,1271.68 825.983,1285.68 790.5,1299.5C 793.232,1285.24 796.565,1271.24 800.5,1257.5 Z"/></g>
<g><path style="opacity:1" fill="#5ab462" d="M 789.5,1302.5 C 785.909,1320.12 782.576,1337.79 779.5,1355.5C 771.344,1391.27 763.677,1427.27 756.5,1463.5C 750.212,1492 744.212,1520.67 738.5,1549.5C 726.102,1605.52 714.435,1661.85 703.5,1718.5C 701.96,1720.84 701.294,1723.5 701.5,1726.5C 699.421,1732.56 698.087,1738.89 697.5,1745.5C 696.215,1748.59 695.549,1751.92 695.5,1755.5C 694.596,1756.21 694.263,1757.21 694.5,1758.5C 604.833,1758.5 515.167,1758.5 425.5,1758.5C 425.5,1653.5 425.5,1548.5 425.5,1443.5C 546.443,1395.57 667.61,1347.9 789,1300.5C 789.464,1301.09 789.631,1301.76 789.5,1302.5 Z"/></g>
<g><path style="opacity:1" fill="#74c579" d="M 779.5,1355.5 C 955.833,1356.83 1132.17,1356.83 1308.5,1355.5C 1314.82,1390.66 1320.82,1425.99 1326.5,1461.5C 1326.5,1462.5 1326.5,1463.5 1326.5,1464.5C 1136.33,1464.83 946.333,1464.5 756.5,1463.5C 763.677,1427.27 771.344,1391.27 779.5,1355.5 Z"/></g>
<g><path style="opacity:1" fill="#5ab564" d="M 425.5,1443.5 C 425.5,1548.5 425.5,1653.5 425.5,1758.5C 408.833,1758.5 392.167,1758.5 375.5,1758.5C 375.5,1659.83 375.5,1561.17 375.5,1462.5C 392.018,1455.77 408.684,1449.44 425.5,1443.5 Z"/></g>
<g><path style="opacity:1" fill="#5ab563" d="M 375.5,1462.5 C 375.5,1561.17 375.5,1659.83 375.5,1758.5C 367.167,1758.5 358.833,1758.5 350.5,1758.5C 350.5,1759.83 350.5,1761.17 350.5,1762.5C 349.833,1762.5 349.5,1762.17 349.5,1761.5C 349.5,1761.17 349.5,1760.83 349.5,1760.5C 341.188,1668.44 332.521,1576.44 323.5,1484.5C 323.328,1483.51 323.662,1482.84 324.5,1482.5C 341.384,1475.56 358.384,1468.89 375.5,1462.5 Z"/></g>
<g><path style="opacity:1" fill="#71c575" d="M 1326.5,1461.5 C 1331.45,1490.01 1336.12,1518.68 1340.5,1547.5C 1140.17,1549.5 939.503,1550.17 738.5,1549.5C 744.212,1520.67 750.212,1492 756.5,1463.5C 946.333,1464.5 1136.33,1464.83 1326.5,1464.5C 1326.5,1463.5 1326.5,1462.5 1326.5,1461.5 Z"/></g>
<g><path style="opacity:0.995" fill="#4f9e4f" d="M 323.5,1484.5 C 332.521,1576.44 341.188,1668.44 349.5,1760.5C 293.833,1760.5 238.167,1760.5 182.5,1760.5C 180.834,1758.81 179.5,1756.81 178.5,1754.5C 226.353,1664.12 274.686,1574.12 323.5,1484.5 Z"/></g>
<g><path style="opacity:1" fill="#6ec572" d="M 1340.5,1547.5 C 1350.14,1604.33 1359.47,1661.33 1368.5,1718.5C 1146.83,1718.5 925.167,1718.5 703.5,1718.5C 714.435,1661.85 726.102,1605.52 738.5,1549.5C 939.503,1550.17 1140.17,1549.5 1340.5,1547.5 Z"/></g>
<g><path style="opacity:1" fill="#6ac46e" d="M 703.5,1718.5 C 925.167,1718.5 1146.83,1718.5 1368.5,1718.5C 1369.49,1722.08 1370.15,1725.74 1370.5,1729.5C 1369.6,1728.79 1369.26,1727.79 1369.5,1726.5C 1146.83,1726.5 924.167,1726.5 701.5,1726.5C 701.294,1723.5 701.96,1720.84 703.5,1718.5 Z"/></g>
<g><path style="opacity:1" fill="#6ac470" d="M 701.5,1726.5 C 924.167,1726.5 1146.83,1726.5 1369.5,1726.5C 1369.26,1727.79 1369.6,1728.79 1370.5,1729.5C 1372.04,1735.74 1373.04,1742.07 1373.5,1748.5C 1148.17,1748.5 922.833,1748.5 697.5,1748.5C 697.5,1747.5 697.5,1746.5 697.5,1745.5C 698.087,1738.89 699.421,1732.56 701.5,1726.5 Z"/></g>
<g><path style="opacity:1" fill="#6ac46f" d="M 697.5,1745.5 C 697.5,1746.5 697.5,1747.5 697.5,1748.5C 922.833,1748.5 1148.17,1748.5 1373.5,1748.5C 1374.32,1751.68 1374.99,1755.02 1375.5,1758.5C 1375.5,1758.83 1375.5,1759.17 1375.5,1759.5C 1375.17,1759.5 1374.83,1759.5 1374.5,1759.5C 1148.33,1758.5 922.001,1758.17 695.5,1758.5C 695.5,1757.5 695.5,1756.5 695.5,1755.5C 695.549,1751.92 696.215,1748.59 697.5,1745.5 Z"/></g>
<g><path style="opacity:0.122" fill="#60bd67" d="M 695.5,1755.5 C 695.5,1756.5 695.5,1757.5 695.5,1758.5C 922.001,1758.17 1148.33,1758.5 1374.5,1759.5C 1147.83,1759.5 921.167,1759.5 694.5,1759.5C 694.5,1759.17 694.5,1758.83 694.5,1758.5C 694.263,1757.21 694.596,1756.21 695.5,1755.5 Z"/></g>
<g><path style="opacity:0.998" fill="#92cc96" d="M 375.5,1758.5 C 392.167,1758.5 408.833,1758.5 425.5,1758.5C 515.167,1758.5 604.833,1758.5 694.5,1758.5C 694.5,1758.83 694.5,1759.17 694.5,1759.5C 688.658,1785.2 682.658,1810.87 676.5,1836.5C 570.167,1836.5 463.833,1836.5 357.5,1836.5C 354.688,1811.9 352.354,1787.23 350.5,1762.5C 350.5,1761.17 350.5,1759.83 350.5,1758.5C 358.833,1758.5 367.167,1758.5 375.5,1758.5 Z"/></g>
<g><path style="opacity:0.999" fill="#9cd6a1" d="M 1375.5,1759.5 C 1480.17,1759.5 1584.83,1759.5 1689.5,1759.5C 1700.74,1845.76 1711.41,1932.09 1721.5,2018.5C 1721.63,2019.24 1721.46,2019.91 1721,2020.5C 1611.88,1967.03 1502.72,1913.69 1393.5,1860.5C 1386.99,1826.93 1380.99,1793.26 1375.5,1759.5 Z"/></g>
<g><path style="opacity:1" fill="#88cb8b" d="M 1375.5,1759.5 C 1375.5,1759.17 1375.5,1758.83 1375.5,1758.5C 1452.5,1758.5 1529.5,1758.5 1606.5,1758.5C 1634.17,1758.5 1661.83,1758.5 1689.5,1758.5C 1789.5,1758.5 1889.5,1758.5 1989.5,1758.5C 1904.19,1855.58 1818.53,1952.42 1732.5,2049C 1730.19,2049.5 1727.86,2049.66 1725.5,2049.5C 1724.72,2038.96 1723.39,2028.62 1721.5,2018.5C 1711.41,1932.09 1700.74,1845.76 1689.5,1759.5C 1584.83,1759.5 1480.17,1759.5 1375.5,1759.5 Z"/></g>
<g><path style="opacity:1" fill="#5dbb64" d="M 182.5,1760.5 C 238.167,1760.5 293.833,1760.5 349.5,1760.5C 349.5,1760.83 349.5,1761.17 349.5,1761.5C 294.499,1761.33 239.499,1761.5 184.5,1762C 185.252,1762.67 185.586,1763.5 185.5,1764.5C 184.026,1763.56 183.026,1762.23 182.5,1760.5 Z"/></g>
<g><path style="opacity:1" fill="#57be63" d="M 349.5,1761.5 C 349.5,1762.17 349.833,1762.5 350.5,1762.5C 352.354,1787.23 354.688,1811.9 357.5,1836.5C 357.511,1843.94 358.178,1851.27 359.5,1858.5C 360.594,1871.16 361.594,1883.82 362.5,1896.5C 364.374,1911.11 365.707,1925.78 366.5,1940.5C 367.44,1950.17 368.44,1959.84 369.5,1969.5C 369.513,1976.28 370.18,1982.95 371.5,1989.5C 372.347,2003.36 373.681,2017.03 375.5,2030.5C 375.635,2036.18 375.968,2041.85 376.5,2047.5C 373.702,2046.29 371.535,2044.29 370,2041.5C 308.252,1949.27 246.752,1856.93 185.5,1764.5C 185.586,1763.5 185.252,1762.67 184.5,1762C 239.499,1761.5 294.499,1761.33 349.5,1761.5 Z"/></g>
<g><path style="opacity:0.998" fill="#8fcb94" d="M 357.5,1836.5 C 463.833,1836.5 570.167,1836.5 676.5,1836.5C 674.5,1843.83 672.5,1851.17 670.5,1858.5C 566.833,1858.5 463.167,1858.5 359.5,1858.5C 358.178,1851.27 357.511,1843.94 357.5,1836.5 Z"/></g>
<g><path style="opacity:0.998" fill="#8dcb91" d="M 359.5,1858.5 C 463.167,1858.5 566.833,1858.5 670.5,1858.5C 667.499,1871.17 664.499,1883.84 661.5,1896.5C 561.833,1896.5 462.167,1896.5 362.5,1896.5C 361.594,1883.82 360.594,1871.16 359.5,1858.5 Z"/></g>
<g><path style="opacity:0.998" fill="#9bd5a1" d="M 1393.5,1860.5 C 1502.72,1913.69 1611.88,1967.03 1721,2020.5C 1721.46,2019.91 1721.63,2019.24 1721.5,2018.5C 1723.39,2028.62 1724.72,2038.96 1725.5,2049.5C 1724.79,2050.4 1723.79,2050.74 1722.5,2050.5C 1615.02,1997.59 1507.35,1944.93 1399.5,1892.5C 1397.29,1881.9 1395.29,1871.24 1393.5,1860.5 Z"/></g>
<g><path style="opacity:0.993" fill="#9ad29f" d="M 1399.5,1892.5 C 1507.35,1944.93 1615.02,1997.59 1722.5,2050.5C 1682.86,2055.05 1643.19,2059.39 1603.5,2063.5C 1540.23,2032.53 1476.9,2001.53 1413.5,1970.5C 1408.62,1944.55 1403.95,1918.55 1399.5,1892.5 Z"/></g>
<g><path style="opacity:0.998" fill="#8acb8e" d="M 362.5,1896.5 C 462.167,1896.5 561.833,1896.5 661.5,1896.5C 657.676,1911.46 654.009,1926.46 650.5,1941.5C 555.763,1941.83 461.096,1941.5 366.5,1940.5C 365.707,1925.78 364.374,1911.11 362.5,1896.5 Z"/></g>
<g><path style="opacity:0.998" fill="#87ca8b" d="M 366.5,1940.5 C 461.096,1941.5 555.763,1941.83 650.5,1941.5C 648.167,1950.83 645.833,1960.17 643.5,1969.5C 552.167,1969.5 460.833,1969.5 369.5,1969.5C 368.44,1959.84 367.44,1950.17 366.5,1940.5 Z"/></g>
<g><path style="opacity:0.998" fill="#85c988" d="M 369.5,1969.5 C 460.833,1969.5 552.167,1969.5 643.5,1969.5C 641.833,1976.17 640.167,1982.83 638.5,1989.5C 549.5,1989.5 460.5,1989.5 371.5,1989.5C 370.18,1982.95 369.513,1976.28 369.5,1969.5 Z"/></g>
<g><path style="opacity:0.99" fill="#96cf9a" d="M 1413.5,1970.5 C 1476.9,2001.53 1540.23,2032.53 1603.5,2063.5C 1590.36,2065.59 1577.02,2067.26 1563.5,2068.5C 1515.35,2044.59 1467.02,2020.93 1418.5,1997.5C 1416.71,1988.53 1415.04,1979.53 1413.5,1970.5 Z"/></g>
<g><path style="opacity:0.997" fill="#82c886" d="M 371.5,1989.5 C 460.5,1989.5 549.5,1989.5 638.5,1989.5C 635.323,2003.21 631.99,2016.87 628.5,2030.5C 544.167,2030.5 459.833,2030.5 375.5,2030.5C 373.681,2017.03 372.347,2003.36 371.5,1989.5 Z"/></g>
<g><path style="opacity:0.984" fill="#93ce97" d="M 1418.5,1997.5 C 1467.02,2020.93 1515.35,2044.59 1563.5,2068.5C 1544.88,2070.87 1526.21,2072.87 1507.5,2074.5C 1480.48,2060.66 1453.15,2047.32 1425.5,2034.5C 1422.81,2022.36 1420.47,2010.03 1418.5,1997.5 Z"/></g>
<g><path style="opacity:0.994" fill="#7ec782" d="M 375.5,2030.5 C 459.833,2030.5 544.167,2030.5 628.5,2030.5C 626.519,2037.76 624.852,2045.09 623.5,2052.5C 553.5,2052.5 483.5,2052.5 413.5,2052.5C 401.12,2051.16 388.787,2049.49 376.5,2047.5C 375.968,2041.85 375.635,2036.18 375.5,2030.5 Z"/></g>
<g><path style="opacity:0.978" fill="#90cc94" d="M 1425.5,2034.5 C 1453.15,2047.32 1480.48,2060.66 1507.5,2074.5C 1501.62,2075.64 1495.62,2076.64 1489.5,2077.5C 1469.15,2066.66 1448.48,2056.32 1427.5,2046.5C 1426.41,2042.61 1425.74,2038.61 1425.5,2034.5 Z"/></g>
<g><path style="opacity:0.965" fill="#8dcc91" d="M 1427.5,2046.5 C 1448.48,2056.32 1469.15,2066.66 1489.5,2077.5C 1481.17,2078.25 1472.84,2078.92 1464.5,2079.5C 1452.92,2074.71 1441.59,2069.38 1430.5,2063.5C 1429.18,2057.9 1428.18,2052.23 1427.5,2046.5 Z"/></g>
<g><path style="opacity:0.971" fill="#7bc77f" d="M 413.5,2052.5 C 483.5,2052.5 553.5,2052.5 623.5,2052.5C 620.852,2062.09 618.352,2071.76 616,2081.5C 615.612,2082.43 614.945,2083.09 614,2083.5C 546.998,2073.38 480.165,2063.05 413.5,2052.5 Z"/></g>
<g><path style="opacity:0.894" fill="#8bcb8e" d="M 1430.5,2063.5 C 1441.59,2069.38 1452.92,2074.71 1464.5,2079.5C 1454.36,2081.23 1444.02,2082.56 1433.5,2083.5C 1432.76,2076.79 1431.76,2070.13 1430.5,2063.5 Z"/></g>
</svg>
